<?xml version="1.0" encoding="utf-8"?>
<!-- Generator: Adobe Illustrator 21.1.0, SVG Export Plug-In . SVG Version: 6.00 Build 0)  -->
<!DOCTYPE svg PUBLIC "-//W3C//DTD SVG 1.1//EN" "http://www.w3.org/Graphics/SVG/1.1/DTD/svg11.dtd">
<svg version="1.1" id="Layer_1" xmlns="http://www.w3.org/2000/svg" xmlns:xlink="http://www.w3.org/1999/xlink" x="0px" y="0px"
	 viewBox="0 0 80 80" style="enable-background:new 0 0 80 80;" xml:space="preserve">
<style type="text/css">
	.st0{fill:#490005;}
	.st1{fill:#F40000;}
	.st2{fill:#E8DCC1;}
</style>
<path class="st0" d="M42.5,50c1.5-0.7,2.8-1.8,3.7-3.2c2.1-3.6,2.5-7.9,1-11.8c-0.8-2.6-2.5-4.8-4.8-6.3c0.1,3.8,0.2,7.6,0.2,11.3
	C42.6,43.3,42.6,46.7,42.5,50z"/>
<path class="st0" d="M38.2,17.4c0.2-2.7,0.4-5.3,0.6-8c-3.1,3.6-10.5,6.5-10.5,6.5c0.5,0.5,1,0.9,1.4,1.5h0.7
	C33.2,17.2,35.7,17.2,38.2,17.4z"/>
<path class="st0" d="M31.8,60.9h-2.1c-0.5,0.5-1,1-1.5,1.5c0,0,7.1,2.8,10.3,6.3c-0.2-2.6-0.4-5.1-0.6-7.7
	C35.9,61,33.9,60.9,31.8,60.9z"/>
<path class="st0" d="M49.1,19c0.6-1.2,1.5-2.2,2.5-3.1v-0.1c-0.6-0.3-7.4-3-10.4-6.4c0.3,2.7,0.5,5.4,0.7,8.2
	C44.3,17.8,46.7,18.3,49.1,19z"/>
<path class="st0" d="M37.7,26.9c-0.6-0.1-1.2-0.2-1.8-0.2s-1.2,0-1.8,0c0,0.2,0,0.5,0,0.8v0.3c0.1,3.5,0,7.3,0,11.1
	c0,2.4-0.1,4.8-0.1,7c0,0.4,0,0.9,0,1.4c-0.1,1.1-0.1,2.3,0,3.4c1.2,0.2,2.4,0.2,3.5,0.1c-0.1-3.6-0.2-7.2-0.2-10.8
	C37.5,35.7,37.5,31.3,37.7,26.9z"/>
<path class="st0" d="M48.9,58.6c-1,0.4-2,0.8-3.1,1.1c-1.2,0.4-2.5,0.7-3.7,1c-0.2,2.7-0.4,5.3-0.6,8c2.9-3,8.7-5.6,10-6.1
	c0-0.1,0-0.3,0-0.4C49.7,60.4,49,59.3,48.9,58.6z"/>
<path class="st0" d="M57.2,22.4c0.5-0.8,1.2-1.4,2.1-1.6c-1.5-0.7-3.3-0.8-4.9-0.4l0.1,0.6C55.4,21.4,56.3,21.9,57.2,22.4z"/>
<path class="st0" d="M19.9,26.2h-1.7l-2.7,2.7c2.3,1.6,2.8,5.2,2.8,5.2c-1.9-0.2-3.6-3.2-3.6-3.2C11,37.2,2.1,39.1,2.1,39.1l0,0
	c0,0,8.9,1.9,12.6,8.4c0,0,1.7-3,3.6-3.3c0,0-0.5,3.5-2.8,5.2l2.7,2.7H20c0-0.1,0.1-0.3,0.1-0.4C20.3,49.6,20.2,27.9,19.9,26.2z"/>
<path class="st0" d="M61.7,52.1l2.7-2.7c-1.3-1.1-2.3-2.7-2.6-4.4c-0.9,2.6-2.3,5-4.1,7.1C57.7,52.1,61.7,52.1,61.7,52.1z"/>
<path class="st0" d="M54.8,55.6c-0.1,0.8-0.1,1.5-0.2,2.3c1.6,0.3,3.2,0.2,4.7-0.5c-1.4-0.2-2.5-2.1-3.2-3.6
	c-0.4,0.4-0.8,0.7-1.2,1.1C54.8,55.1,54.8,55.4,54.8,55.6z"/>
<path class="st0" d="M76,38.6c-3.6-1.3-7.2-2.9-10.6-4.7L63.5,33c-0.4,0.5-1,0.8-1.6,0.9c0.6,2.2,0.9,4.4,0.7,6.7
	c-0.1,1.3-0.3,2.5-0.6,3.7c1.8,0.5,3.3,3.2,3.3,3.2c3.7-6.5,12.6-8.4,12.6-8.4l0,0c0,0-0.4-0.1-1-0.3h-0.1L76,38.6z"/>
<path d="M37.6,50.8L37.6,50.8c-0.1-3.6-0.2-7.2-0.2-10.8C37.4,43.6,37.5,47.2,37.6,50.8z"/>
<path d="M42.5,50L42.5,50c0.1-3.3,0.1-6.6,0.1-10C42.6,43.3,42.6,46.7,42.5,50z"/>
<path d="M37.7,26.9L37.7,26.9c-0.2,4.4-0.2,8.7-0.3,13.1C37.5,35.7,37.5,31.3,37.7,26.9z"/>
<path d="M42.4,28.7L42.4,28.7c0.1,3.8,0.2,7.6,0.2,11.3C42.6,36.2,42.5,32.5,42.4,28.7z"/>
<path class="st1" d="M41.2,9.5C40.9,6.3,40.5,3.2,40,0c-0.5,3.1-0.9,6.2-1.2,9.4c-0.3,2.7-0.5,5.3-0.6,8l0,0
	c1.2,0.1,2.4,0.1,3.6,0.2l0.1,0C41.8,14.8,41.5,12.2,41.2,9.5z"/>
<path class="st1" d="M37.3,40c0,3.6,0.1,7.2,0.2,10.8l1.9-0.1h0.1c1-0.1,2.1-0.2,3-0.7c0.1-3.3,0.1-6.7,0.1-10.1
	c0-3.8-0.1-7.5-0.2-11.2c-1.4-0.9-3-1.5-4.7-1.8C37.5,31.4,37.3,35.7,37.3,40z"/>
<path class="st1" d="M42.1,60.7c-1.2,0.2-2.5,0.2-3.7,0.3l-0.5,0c0.2,2.6,0.4,5.1,0.6,7.7c0.3,3.8,0.9,7.6,1.5,11.3
	c0.6-3.8,1.1-7.5,1.5-11.4C41.7,66,41.9,63.3,42.1,60.7L42.1,60.7z"/>
<path class="st1" d="M27.8,17.4c-0.3-2.9-0.8-5.7-1.3-8.5c-0.6,2.9-1,5.8-1.4,8.7h1.5L27.8,17.4z"/>
<path class="st1" d="M25,60.8c0.4,3.5,0.8,6.9,1.5,10.4c0.7-3.4,1.2-6.9,1.5-10.4L25,60.8z"/>
<path class="st1" d="M54.4,20.4c-0.4-3.9-0.9-7.7-1.7-11.5c-0.4,2.3-0.8,4.7-1.1,7l0,0L51.5,16c-0.2,1.2-0.3,2.5-0.4,3.7
	c0.9,0.3,1.8,0.6,2.6,1l0.8,0.3L54.4,20.4z"/>
<path d="M51.7,15.9L51.7,15.9L51.7,15.9L51.7,15.9z"/>
<path class="st1" d="M51.9,57c-0.3,0.2-0.7,0.4-1,0.6c0.1,1.5,0.3,3,0.5,4.5c0,0.1,0,0.3,0,0.4c0.3,2.9,0.8,5.8,1.4,8.7
	c0.9-4.4,1.5-8.8,1.8-13.3c0.1-0.8,0.1-1.5,0.2-2.3c0-0.2,0-0.5,0-0.7C53.9,55.6,52.9,56.3,51.9,57z"/>
<path d="M76.8,38.8L76.8,38.8L76.8,38.8z"/>
<path class="st2" d="M62.3,30.3c-2-1.5-4.3-2.7-6.7-3.5c2.5,3.4,5.3,7.2,4.9,13.7c-0.3,4.2-2.2,8.2-5.2,11.1c-2.8,2.9-6.4,5-10.3,6
	c-2.2,0.8-4.6,1.2-6.9,1.2c-7.8,0-15.9-0.5-23.3,0.4c-0.1-0.7-0.2-1.4-0.4-2.1c3-0.8,7.2-1.8,7.6-5.4c0.2-2,0.2-24.5-0.2-26.1
	c-0.5-2.3-4.9-2.9-7.3-3.4c0-0.8,0.2-1.3,0.2-2.1c5.2-0.6,10.3-0.7,15.7-1C44.8,18.7,57,21.6,62.3,30.3z M32.6,24.7
	c-0.7,0.1-0.5,2.4-0.5,3.1c0.1,5.7-0.1,12.4-0.1,18.1c0,1.8-0.5,5.6,0.6,6.5c1.1,0.9,5.2,0.6,6.9,0.4c8.6-0.6,12.5-10.1,9.6-18.5
	c-1.9-5.4-6.1-9.2-13.1-9.6C34.9,24.6,33.8,24.6,32.6,24.7L32.6,24.7z"/>
</svg>
