<?xml version="1.0" encoding="utf-8"?>
<!-- Generator: Adobe Illustrator 21.1.0, SVG Export Plug-In . SVG Version: 6.00 Build 0)  -->
<!DOCTYPE svg PUBLIC "-//W3C//DTD SVG 1.1//EN" "http://www.w3.org/Graphics/SVG/1.1/DTD/svg11.dtd">
<svg version="1.1" id="Layer_1" xmlns="http://www.w3.org/2000/svg" xmlns:xlink="http://www.w3.org/1999/xlink" x="0px" y="0px"
	 viewBox="0 0 80 80" style="enable-background:new 0 0 80 80;" xml:space="preserve">
<style type="text/css">
	.st0{display:none;}
	.st1{display:inline;filter:url(#Adobe_OpacityMaskFilter);}
	.st2{filter:url(#Adobe_OpacityMaskFilter_1_);}
	.st3{mask:url(#SVGID_1_);stroke:#000000;stroke-width:4;stroke-miterlimit:10;}
	.st4{display:inline;}
	.st5{fill:#490005;}
	.st6{fill:#D80000;}
	.st7{fill:#F23F00;}
	.st8{display:inline;filter:url(#Adobe_OpacityMaskFilter_2_);}
	.st9{display:inline;mask:url(#SVGID_2_);fill:#E8DCC1;}
	.st10{fill:#418AF2;}
	.st11{fill:#FFFFFF;}
	.st12{display:inline;fill:#36AEEA;}
	.st13{fill:#593810;}
	.st14{fill:#FF9C00;}
	.st15{fill:#39CCFF;}
</style>
<g class="st0">
	<defs>
		<filter id="Adobe_OpacityMaskFilter" filterUnits="userSpaceOnUse" x="1.5" y="0" width="77" height="80">
			<feFlood  style="flood-color:white;flood-opacity:1" result="back"/>
			<feBlend  in="SourceGraphic" in2="back" mode="normal"/>
		</filter>
	</defs>
	<mask maskUnits="userSpaceOnUse" x="1.5" y="0" width="77" height="80" id="SVGID_1_" class="st4">
		<g style="filter:url(#Adobe_OpacityMaskFilter);">
			<defs>
				<filter id="Adobe_OpacityMaskFilter_1_" filterUnits="userSpaceOnUse" x="11.9" y="16.7" width="55.7" height="44.9">
					<feFlood  style="flood-color:white;flood-opacity:1" result="back"/>
					<feBlend  in="SourceGraphic" in2="back" mode="normal"/>
				</filter>
			</defs>
			<mask maskUnits="userSpaceOnUse" x="11.9" y="16.7" width="55.7" height="44.9" id="SVGID_1_">
				<g class="st2">
				</g>
			</mask>
			<path class="st3" d="M62.7,29.9c-2.2-0.9-4.2-2.8-6.8-3.5c2.5,3.5,5.4,7.4,5,13.9c-0.3,5-2.7,8.5-5.3,11.3
				c-2.8,2.9-6.4,5.1-10.3,6.1c-2.3,0.8-4.6,1.2-7,1.3c-7.9,0-16.1-0.5-23.7,0.4c-0.1-0.7-0.2-1.4-0.4-2.1c3.1-0.8,7.3-1.8,7.7-5.4
				c0.2-2,0.2-24.9-0.2-26.6c-0.5-2.3-5-3-7.4-3.5c0-0.8,0.2-1.3,0.2-2.1c5.2-0.7,10.4-0.7,16-1C44.9,18.1,57.3,21,62.7,29.9z
				 M32.5,24.2c-0.7,0.1-0.5,2.4-0.5,3.1c0.1,5.8-0.1,12.6-0.1,18.4c0,1.8-0.5,5.7,0.6,6.6c1.1,0.9,5.3,0.6,7,0.4
				c8.8-0.6,12.7-10.3,9.7-18.8c-1.9-5.5-6.2-9.3-13.3-9.8C35,24,32.7,24.2,32.5,24.2z"/>
			<path d="M61.6,33.7c0,0,1.4,0,2.4-1.2c0,0,9.6,5.2,14.3,6.3s4.6-10,4.6-10l-19.7-6.6l-3.6,2.1l-0.8,4.9L61.6,33.7z"/>
		</g>
	</mask>
	<g class="st4">
		<path class="st5" d="M78.5,38.8c0,0-9-1.9-12.8-8.5c0,0-1.8,3.1-3.7,3.3c0,0,0.5-3.6,2.8-5.2l-2.8-2.7h-6.5c0,0,1.7-5,4-5.4
			c0,0-3.9-1.8-6.5,0.4c0,0-8.4,1.2-1.3-5.4c0,0-10.2-4-11.9-8.4c-1.7,4.4-11.9,8.4-11.9,8.4c7.1,6.6-1.3,5.4-1.3,5.4
			c-2.6-2.2-6.5-0.4-6.5-0.4c2.3,0.4,4,5.4,4,5.4h-6.5l-2.8,2.7c2.3,1.7,2.8,5.2,2.8,5.2c-1.9-0.3-3.7-3.3-3.7-3.3
			c-3.7,6.6-12.8,8.5-12.8,8.5v0c0,0,9,1.9,12.8,8.5c0,0,1.8-3.1,3.7-3.3c0,0-0.5,3.6-2.8,5.2l2.8,2.7h6.5c0,0-1.7,5-4,5.4
			c0,0,3.9,1.8,6.5-0.4c0,0,8.4-1.2,1.3,5.4c0,0,10.2,4,11.9,8.4c1.7-4.4,11.9-8.4,11.9-8.4c-7.1-6.6,1.3-5.4,1.3-5.4
			c2.6,2.2,6.5,0.4,6.5,0.4c-2.3-0.4-4-5.4-4-5.4h6.5l2.8-2.7c-2.3-1.7-2.8-5.2-2.8-5.2c1.9,0.3,3.7,3.3,3.7,3.3
			C69.4,40.8,78.5,38.9,78.5,38.8L78.5,38.8z"/>
		<g>
			<path class="st6" d="M40,0.4c1,6.6,1.6,13.1,2,19.7c0.4,6.6,0.5,13.1,0.5,19.7c0,6.6-0.2,13.1-0.5,19.7c-0.4,6.6-0.9,13.1-2,19.7
				c-1-6.6-1.6-13.1-2-19.7c-0.4-6.6-0.5-13.1-0.5-19.7c0-6.6,0.2-13.1,0.5-19.7C38.5,13.5,39,6.9,40,0.4z"/>
		</g>
		<g>
			<path class="st7" d="M40,0c1,6.7,1.6,13.3,2,20c0.4,6.7,0.5,13.3,0.5,20c0,6.7-0.2,13.3-0.5,20c-0.4,6.7-0.9,13.3-2,20
				c-1-6.7-1.6-13.3-2-20c-0.4-6.7-0.5-13.3-0.5-20c0-6.7,0.2-13.3,0.5-20C38.5,13.3,39,6.7,40,0z"/>
		</g>
		<g>
			<path class="st7" d="M26.3,8.1c1,5.3,1.6,10.6,2,15.8c0.4,5.3,0.5,10.6,0.5,15.8c0,5.3-0.2,10.6-0.5,15.8
				c-0.4,5.3-0.9,10.6-2,15.8c-1-5.3-1.6-10.6-2-15.8C24,50.3,23.8,45,23.8,39.8c0-5.3,0.2-10.6,0.5-15.8
				C24.7,18.6,25.3,13.4,26.3,8.1z"/>
		</g>
		<g>
			<path class="st7" d="M53,8.1c1,5.3,1.6,10.6,2,15.8c0.4,5.3,0.5,10.6,0.5,15.8c0,5.3-0.2,10.6-0.5,15.8c-0.4,5.3-0.9,10.6-2,15.8
				c-1-5.3-1.6-10.6-2-15.8c-0.4-5.3-0.5-10.6-0.5-15.8c0-5.3,0.2-10.6,0.5-15.8C51.4,18.6,52,13.4,53,8.1z"/>
		</g>
	</g>
	<defs>
		<filter id="Adobe_OpacityMaskFilter_2_" filterUnits="userSpaceOnUse" x="14.2" y="19.4" width="48.5" height="40.7">
			<feFlood  style="flood-color:white;flood-opacity:1" result="back"/>
			<feBlend  in="SourceGraphic" in2="back" mode="normal"/>
		</filter>
	</defs>
	<mask maskUnits="userSpaceOnUse" x="14.2" y="19.4" width="48.5" height="40.7" id="SVGID_2_" class="st4">
		<g style="filter:url(#Adobe_OpacityMaskFilter_2_);">
		</g>
	</mask>
	<path class="st9" d="M62.7,30.7c-2-1.4-4.2-2.8-6.8-3.5c2.5,3.5,5.4,7.4,5,13.9c-0.3,5-2.7,8.5-5.3,11.3c-2.8,2.9-6.4,5.1-10.3,6.1
		c-2.3,0.8-4.6,1.2-7,1.3c-7.9,0-16.1-0.5-23.7,0.4c-0.1-0.7-0.2-1.4-0.4-2.1c3.1-0.8,7.3-1.8,7.7-5.4c0.2-2,0.2-24.9-0.2-26.6
		c-0.5-2.3-5-3-7.4-3.5c0-0.8,0.2-1.3,0.2-2.1c5.2-0.7,10.4-0.7,16-1C44.9,18.9,57.3,21.8,62.7,30.7z M32.5,25
		c-0.7,0.1-0.5,2.4-0.5,3.1c0.1,5.8-0.1,12.6-0.1,18.4c0,1.8-0.5,5.7,0.6,6.6c1.1,0.9,5.3,0.6,7,0.4c8.8-0.6,12.7-10.3,9.7-18.8
		c-1.9-5.5-6.2-9.3-13.3-9.8C35,24.8,32.7,25,32.5,25z"/>
</g>
<g class="st0">
	<g class="st4">
		<polygon class="st10" points="63.4,53.5 40,67.1 16.6,53.5 16.6,26.5 40,12.9 63.4,26.5 		"/>
		<polygon class="st11" points="40,10.4 13.8,25.1 13.8,54.6 40,69.4 66.2,54.6 66.2,25.1 		"/>
	</g>
	<path class="st12" d="M18.7,37.6c1.7-14,13.9-17.8,13.9-17.8c-16.3,17.4,3.2,29.8,3.2,29.8l-13.2,2.9C22.7,52.5,18,46.9,18.7,37.6z
		"/>
	<path class="st12" d="M48.4,59.8c-14,5.1-22.2-3.8-22.2-3.8c22.9,5.8,24.5-17.4,24.5-17.4l8.8,10.1C59.5,48.7,57,55.9,48.4,59.8z"
		/>
	<path class="st12" d="M60.9,43.9c-7-22.9-26.7-12-26.7-12l4.2-13.3c0,0,8.4-1.1,16,5.4C63.7,32.1,60.9,43.9,60.9,43.9z"/>
</g>
<g>
	<circle class="st13" cx="40.1" cy="40" r="20.8"/>
	<g>
		<path class="st14" d="M61.7,48.4L75.8,40l-14.1-8.4c-0.7-1.8-1.6-3.4-2.7-5l3.2-8.9l-8.8,3.2c-1.5-1.1-3.2-2-5-2.7L40,4.2
			l-8.4,14.1c-1.8,0.7-3.4,1.6-5,2.7l-8.8-3.2l3.2,8.8c-1.1,1.5-2,3.2-2.7,5L4.2,40l14.1,8.4c0.7,1.8,1.6,3.4,2.7,5l-3.2,8.9
			l8.8-3.2c1.5,1.1,3.2,2,5,2.7L40,75.8l8.4-14.1c1.8-0.7,3.4-1.6,5-2.7l8.9,3.2l-3.2-8.8C60.2,51.9,61.1,50.2,61.7,48.4z M40,59.3
			c-10.6,0-19.3-8.6-19.3-19.3S29.4,20.7,40,20.7S59.3,29.4,59.3,40l0,0C59.3,50.6,50.6,59.3,40,59.3L40,59.3L40,59.3z"/>
		<path class="st15" d="M52.9,39.5c0.1-0.9-0.7-1.8-0.8-2.8c0-0.5-0.2-1-0.4-1.5c-0.2-0.5-0.2-1-0.3-1.4h-0.1
			c0.6-1.2-1.1-2.6-1.9-3.5c-1-1-1.5-2.3-3-2.8c-0.7-0.3-1.4-0.7-2.2-1c-0.7-0.3-1.5-0.5-2.1-0.7c-0.7-0.3-1.2-0.9-2-0.8
			c-0.8,0.1-1.2,0.6-2.1,0.4c-1.8-0.6-3.1,0.4-4.5,1.4c-0.7,0.5-1.4,0.9-2,1.4c-0.2,0.2-0.4,0.5-0.6,0.8c-0.2,0.3-0.6,0.5-0.8,0.9
			c-0.4,0.6-1,1-1.6,1.4c-0.3,0.2-0.5,0.6-0.9,0.8c-0.5,0.3-0.6,0.2-0.6,0.8c0,0.8,0.4,1.4,0.4,2.1c0,0.4,0,0.8,0,1.2
			c0.1,0.4,0.2,0.7,0.3,1.1c0.2,0.7,0,1.5,0.3,2.1c0.4,0.6,0.8,1.3,1.3,1.8c0.5,0.6,1,1.3,1.5,2c0.3,0.4,1.4,1,1.4,1.6
			c0.8,0.2,1,1.1,1.7,1.1c0.4-0.1,0.8-0.1,1.1,0c0.4,0.1,0.7,0.2,1.1,0.3c0.7,0,1.2-0.6,1.9-0.8s1.5,0,2.2-0.3
			c1.3-0.8,2.1-2.2,2.2-3.7c0-0.8-0.2-1.6-0.7-2.2c-0.4-0.7-0.1-1.5-0.8-1.9c-0.7-0.3-1.5-0.6-2.4-0.6c-0.8-0.3-1.6-0.2-2.4,0.1
			c-1.3,0.9,1.6,3,0.1,3.7c-1.7,0.7-2.6-1.2-3-2.5c-0.2-0.8-0.2-1.7,0-2.5c0-0.4,0.1-0.7,0.2-1.1c0.2-0.3,0.6-0.5,0.9-0.6
			c0.6-0.4,1.1-1,1.7-1.4c0.6-0.4,1.4-0.7,2.1-0.9c0.9-0.2,1.8-0.2,2.7-0.2c0.4,0,0.8,0.1,1.2,0.1c0.4,0,0.7-0.2,1.1-0.2
			c0.6,0,0.4,0.2,0.4,0.7c0,0.3,0.2,0.6,0.4,0.9c0.5,0.6,0.9,1.2,1.4,1.8c1,1.2,0.8,3.1,0.7,4.6c-0.1,0.8,0,1.6,0.2,2.4
			c0.3,0.9-0.4,0.9-1,1.4c-0.4,0.6-0.8,1.2-1.1,1.8c-0.5,0.6-1,1.1-1.6,1.5c-0.5,0.5-1.1,0.9-1.6,1.3c-0.7,0.4-1.4,0.8-2.1,1.1
			c-0.8,0.3-1.7,0.5-2.5,0.7c-0.4,0.1-0.8,0.2-1.2,0.4c-0.3,0.2-0.5,0.6-0.9,0.8c-1,0.6-2.1,0.5-3.2,1c-0.6,0.3-2.6,0.4-2.7,1.1
			h-0.1c0.3,0.6,0.9,1.1,1.6,1.2c0.7,0.1,1.4,0.3,2,0.5c0.7,0.3,1.3,0.4,2,0.5c0.7,0,1.3,0.4,2,0.5c0.8,0.1,1.4-0.5,2.1-0.6
			c0.8-0.1,1.6-0.1,2.4-0.2c0.8-0.1,1.5-0.3,2.3-0.5c0.7-0.3,1.4-0.3,2.1-0.6c0.7-0.3,1.3-0.6,1.9-1c0.6-0.4,0.7-1.1,1.3-1.5
			c0.6-0.4,1.1-0.8,1.6-1.3c0.4-0.6,0.7-1.3,0.8-2c0.3-0.6,0.7-1.2,1.1-1.7c0.3-0.7,0.6-1.4,0.7-2.1c0.3-0.7,0.3-1.4,0.3-2.2
			c-0.1-0.4-0.5-0.6-0.3-1.1C52.7,40.1,52.8,39.8,52.9,39.5z"/>
	</g>
</g>
</svg>
