<?xml version="1.0" encoding="utf-8"?>
<!-- Generator: Adobe Illustrator 21.1.0, SVG Export Plug-In . SVG Version: 6.00 Build 0)  -->
<!DOCTYPE svg PUBLIC "-//W3C//DTD SVG 1.1//EN" "http://www.w3.org/Graphics/SVG/1.1/DTD/svg11.dtd">
<svg version="1.1" id="Layer_1" xmlns="http://www.w3.org/2000/svg" xmlns:xlink="http://www.w3.org/1999/xlink" x="0px" y="0px"
	 viewBox="0 0 80 80" style="enable-background:new 0 0 80 80;" xml:space="preserve">
<style type="text/css">
	.st0{fill:#CCE1FF;}
	.st1{fill:#3390FF;}
</style>
<g>
	<g>
		<path class="st0" d="M73.1,23c0,0-0.1-0.1-0.2-0.1H46.3L45.9,23l-4.8,4.5c-0.1,0.1-0.1,0.3,0,0.5c0.1,0.1,0.2,0.1,0.2,0.1h21.3
			l1.2,1.5c0.1,0.1,0.3,0.2,0.4,0.1l8.7-6.2C73.1,23.5,73.2,23.2,73.1,23z"/>
		<path class="st0" d="M61.3,50.8c-5.9-0.2-10.9-4.8-11.3-10.9c-0.1-0.7-0.1-1.5-0.2-2.3c0-1.9,0.2-4,0.5-5.9c0-0.1,0-0.2-0.1-0.3
			c-0.1-0.1-0.2-0.1-0.3-0.1h-9c-0.1,0-0.3,0.1-0.3,0.2c-0.8,2.3-1.1,4.7-1.1,7.1c0,1.8,0.3,3.6,1,5.2c1.7,5.3,8.2,10.5,13.4,10.5
			c7.9,0,9.7-2.8,9.8-3.7c0,0-0.1-0.1-0.4-0.1C62.6,50.7,62,50.8,61.3,50.8z"/>
		<path class="st0" d="M39.3,22.9H16c-0.9-0.1-1.9,0.2-2.7,0.7c-0.9,0.8-1.3,2.1-1.2,3.3v0.8c0,0.3,0.1,0.4,0.3,0.5h18l2.4,2.2
			c0.1,0.1,0.1,0.1,0.2,0.1c0.1,0,0.2,0,0.2-0.1l6.3-6.9c0.1-0.1,0.1-0.2,0.1-0.4C39.5,23,39.4,22.9,39.3,22.9z"/>
		<path class="st0" d="M25,31.3l-0.3-0.1H14.3c-0.2,0-0.3,0.2-0.3,0.3c0,0.1,0,0.1,0.1,0.2c0,0,13.9,16.2,14.3,16.6v0.1l-0.1,0.1
			h-8.2c-1.2,0-2.4-0.3-3.3-1c-0.4-0.3-0.7-0.6-1-1c-0.1-0.1-0.1-0.1-0.2-0.1s-0.2,0-0.3,0.1l-7.8,7.2c-0.1,0.1-0.1,0.3,0,0.5
			c0.1,0.1,0.1,0.1,0.2,0.1h28.8c1.7,0,2.8-1.9,2.8-3.5c0-0.7-0.2-1.3-0.6-1.9C37.7,47.3,25,31.3,25,31.3z"/>
	</g>
	<g>
		<path class="st1" d="M42.2,25.2l3.2-3l0.7-0.2h7.6v-0.5c0-0.6,0.1-1.2,0.4-1.7c0,0,0,0,0,0c0.8-1.4,4.6-3.8,6.6-4.9
			c1.3-0.7,2.5-1.3,3.8-1.8c0.1,0,0.2-0.2,0.2-0.3c0-0.2-0.1-0.3-0.3-0.4l-11.2-2.1h-0.2l-10.7,4.2c-0.1,0.1-0.2,0.2-0.2,0.3
			L42.2,25.2L42.2,25.2z"/>
		<path class="st1" d="M50,30.3c0.2,0,0.6,0,1,0.4c0.4,0.4,0.4,0.9,0.4,1v0.1l0,0.1c-0.3,2.1-0.5,4-0.5,5.7c0,0.4,0.1,0.8,0.1,1.1
			c0,0.4,0,0.7,0.1,1l0,0.1c0.2,2.4,1.1,4.6,2.6,6.3l0-16.9H42.2v1.1L50,30.3L50,30.3z"/>
		<path class="st1" d="M45.3,51.9c-1.2-0.9-2.2-2-3.1-3.1v20c0,0,0,0.1,0,0.1c0,0.2,0.7,0.1,0.8,0c10.6-7.2,10.6-11.8,10.6-11.8
			v-1.8C51,55.3,48,54.1,45.3,51.9z"/>
	</g>
	<path class="st1" d="M34,31.1c-0.2,0.3-0.5,0.6-1.1,0.6c-0.4,0-0.7-0.1-0.9-0.4l-2.1-1.9h-3.8v1.7c1.4,1.8,8.1,10.3,11.5,14.7V27.1
		L34,31.1z"/>
	<path class="st1" d="M36.6,55.3H26.1v1.8c0,0,0.1,4.5,10.6,11.8c0.2,0.1,0.8,0.2,0.8,0c0,0,0,0,0-0.1V55.1
		C37.3,55.3,36.9,55.3,36.6,55.3z"/>
	<path class="st1" d="M15.3,13c1.3,0.6,2.6,1.2,3.8,1.8c2,1.1,5.8,3.5,6.6,4.9c0,0,0,0,0,0c0.3,0.5,0.4,1.1,0.4,1.7v0.5h11.6v-7.1
		c0-0.1-0.1-0.3-0.2-0.3l-10.7-4.2h-0.2l-11.2,2.1c-0.2,0-0.3,0.2-0.3,0.4C15.1,12.8,15.2,13,15.3,13z"/>
</g>
</svg>
